<?xml version="1.0" encoding="utf-8"?>
<!-- Generator: Adobe Illustrator 16.0.0, SVG Export Plug-In . SVG Version: 6.00 Build 0)  -->
<!DOCTYPE svg PUBLIC "-//W3C//DTD SVG 1.1//EN" "http://www.w3.org/Graphics/SVG/1.1/DTD/svg11.dtd">
<svg version="1.1" id="Layer_1" xmlns="http://www.w3.org/2000/svg" xmlns:xlink="http://www.w3.org/1999/xlink" x="0px" y="0px"
	 width="70px" height="70px" viewBox="0 0 70 70" enable-background="new 0 0 70 70" xml:space="preserve">
<g>
	<circle fill="#999999" cx="35" cy="35" r="35"/>
	<g>
		<path fill="#FFFFFF" d="M13.416,28.538h4.651v0.658h-3.927v2.765h3.652v0.658h-3.652v3.687h-0.725V28.538z"/>
		<path fill="#FFFFFF" d="M19.768,28.735c0.274,0,0.494,0.22,0.494,0.494s-0.22,0.494-0.494,0.494s-0.494-0.219-0.494-0.494
			S19.493,28.735,19.768,28.735z M19.438,31.237h0.658v5.068h-0.658V31.237z"/>
		<path fill="#FFFFFF" d="M26.438,35.351c-0.516,0.768-1.294,1.086-2.193,1.086c-1.547,0-2.567-1.108-2.567-2.677
			c0-1.514,1.053-2.655,2.534-2.655c1.558,0,2.381,1.196,2.381,2.37v0.461h-4.257c0,0.548,0.384,1.909,1.92,1.909
			c0.669,0,1.371-0.351,1.7-0.899L26.438,35.351z M25.934,33.344c0-0.9-0.779-1.646-1.756-1.646c-1.438,0-1.843,1.382-1.843,1.646
			H25.934z"/>
		<path fill="#FFFFFF" d="M28.171,28.012h0.658v8.294h-0.658V28.012z"/>
		<path fill="#FFFFFF" d="M35.126,35.417h-0.022c-0.405,0.702-1.272,1.021-2.029,1.021c-1.558,0-2.666-1.119-2.666-2.666
			s1.108-2.666,2.666-2.666c0.757,0,1.624,0.318,2.029,1.021h0.022v-4.114h0.658v8.294h-0.658V35.417z M33.074,31.698
			c-1.24,0-2.008,0.933-2.008,2.074c0,1.141,0.768,2.073,2.008,2.073c1.196,0,2.117-0.933,2.117-2.073
			C35.191,32.63,34.271,31.698,33.074,31.698z"/>
		<path fill="#FFFFFF" d="M39.953,28.538h0.954l3.324,7.768h-1.229l-0.779-1.92h-3.697l-0.768,1.92h-1.229L39.953,28.538z
			 M41.84,33.464l-1.448-3.565h-0.022l-1.47,3.565H41.84z"/>
		<path fill="#FFFFFF" d="M44.988,31.105h0.986v0.801h0.022c0.253-0.549,0.911-0.933,1.558-0.933c0.154,0,0.308,0.022,0.439,0.066
			l-0.045,1.064c-0.164-0.044-0.328-0.077-0.482-0.077c-0.965,0-1.492,0.527-1.492,1.667v2.611h-0.986V31.105z"/>
		<path fill="#FFFFFF" d="M49.047,31.105h0.922v0.812h0.021c0.099-0.307,0.735-0.943,1.668-0.943c0.768,0,1.295,0.329,1.623,0.966
			c0.34-0.637,1.021-0.966,1.646-0.966c1.602,0,1.975,1.141,1.975,2.304v3.028h-0.988v-2.896c0-0.79-0.164-1.514-1.118-1.514
			s-1.327,0.647-1.327,1.568v2.842H52.48v-2.721c0-0.987-0.143-1.689-1.097-1.689c-0.714,0-1.35,0.537-1.35,1.711v2.699h-0.987
			V31.105z"/>
	</g>
	<circle fill="none" stroke="#FFFFFF" stroke-miterlimit="10" cx="35" cy="35" r="30.679"/>
	<path fill="none" stroke="#FFFFFF" stroke-linecap="square" stroke-miterlimit="10" d="M3.022,49.248
		c4.867-3.247,10.714-5.14,17.005-5.14c14.179,0,26.111,9.618,29.627,22.688"/>
	<path fill="none" stroke="#FFFFFF" stroke-linecap="square" stroke-miterlimit="10" d="M43.791,55.385
		c5.193-4.032,11.716-6.433,18.799-6.432c1.488,0,2.95,0.106,4.381,0.31"/>
</g>
</svg>
