<?xml version="1.0" encoding="utf-8"?>
<!-- Generator: Adobe Illustrator 16.0.0, SVG Export Plug-In . SVG Version: 6.00 Build 0)  -->
<!DOCTYPE svg PUBLIC "-//W3C//DTD SVG 1.1//EN" "http://www.w3.org/Graphics/SVG/1.1/DTD/svg11.dtd">
<svg version="1.1" id="Layer_1" xmlns="http://www.w3.org/2000/svg" xmlns:xlink="http://www.w3.org/1999/xlink" x="0px" y="0px"
	 width="140px" height="140px" viewBox="0 0 140 140" enable-background="new 0 0 140 140" xml:space="preserve">
<g>
	<circle fill="#008E07" cx="70" cy="70" r="70"/>
	<g>
		<path fill="#FFFFFF" d="M26.832,57.076h9.303v1.316H28.28v5.53h7.307v1.316H28.28v7.373h-1.448V57.076z"/>
		<path fill="#FFFFFF" d="M39.535,57.471c0.549,0,0.988,0.439,0.988,0.987c0,0.549-0.439,0.988-0.988,0.988
			c-0.548,0-0.987-0.439-0.987-0.988C38.548,57.91,38.987,57.471,39.535,57.471z M38.877,62.474h1.317v10.137h-1.317V62.474z"/>
		<path fill="#FFFFFF" d="M52.876,70.702c-1.032,1.536-2.589,2.173-4.389,2.173c-3.094,0-5.134-2.216-5.134-5.354
			c0-3.028,2.106-5.31,5.068-5.31c3.116,0,4.762,2.392,4.762,4.739v0.922h-8.514c0,1.097,0.768,3.817,3.84,3.817
			c1.338,0,2.743-0.702,3.401-1.799L52.876,70.702z M51.866,66.687c0-1.799-1.558-3.292-3.511-3.292
			c-2.874,0-3.686,2.765-3.686,3.292H51.866z"/>
		<path fill="#FFFFFF" d="M56.341,56.023h1.317v16.588h-1.317V56.023z"/>
		<path fill="#FFFFFF" d="M70.252,70.834h-0.044c-0.812,1.404-2.545,2.041-4.06,2.041c-3.116,0-5.332-2.238-5.332-5.333
			c0-3.094,2.216-5.332,5.332-5.332c1.514,0,3.248,0.636,4.06,2.041h0.044v-8.229h1.316v16.588h-1.316V70.834z M66.148,63.396
			c-2.479,0-4.015,1.865-4.015,4.147c0,2.282,1.536,4.147,4.015,4.147c2.392,0,4.235-1.865,4.235-4.147
			C70.383,65.261,68.541,63.396,66.148,63.396z"/>
		<path fill="#FFFFFF" d="M79.905,57.076h1.909l6.648,15.535h-2.457l-1.559-3.84h-7.395l-1.535,3.84H73.06L79.905,57.076z
			 M83.68,66.928l-2.896-7.131h-0.044l-2.94,7.131H83.68z"/>
		<path fill="#FFFFFF" d="M89.976,62.211h1.975v1.602h0.044c0.505-1.097,1.821-1.865,3.116-1.865c0.307,0,0.614,0.044,0.877,0.132
			l-0.088,2.128c-0.329-0.088-0.658-0.154-0.965-0.154c-1.931,0-2.984,1.053-2.984,3.335v5.222h-1.975V62.211z"/>
		<path fill="#FFFFFF" d="M98.094,62.211h1.843v1.624h0.044c0.197-0.614,1.471-1.887,3.335-1.887c1.536,0,2.59,0.658,3.248,1.931
			c0.68-1.273,2.04-1.931,3.291-1.931c3.204,0,3.95,2.282,3.95,4.608v6.056h-1.976v-5.793c0-1.58-0.329-3.028-2.237-3.028
			c-1.909,0-2.655,1.294-2.655,3.138v5.683h-1.975V67.17c0-1.975-0.286-3.379-2.194-3.379c-1.427,0-2.699,1.075-2.699,3.423v5.398
			h-1.975V62.211z"/>
	</g>
	<circle fill="none" stroke="#FFFFFF" stroke-width="2" stroke-miterlimit="10" cx="70" cy="70" r="61.358"/>
	<path fill="none" stroke="#FFFFFF" stroke-width="2" stroke-linecap="square" stroke-miterlimit="10" d="M6.045,98.495
		c9.734-6.494,21.429-10.279,34.009-10.279c28.358,0,52.223,19.236,59.256,45.375"/>
	<path fill="none" stroke="#FFFFFF" stroke-width="2" stroke-linecap="square" stroke-miterlimit="10" d="M87.583,110.771
		c10.385-8.064,23.431-12.865,37.598-12.863c2.975,0,5.899,0.212,8.76,0.619"/>
</g>
</svg>
