<?xml version="1.0" encoding="utf-8"?>
<!-- Generator: Adobe Illustrator 16.0.0, SVG Export Plug-In . SVG Version: 6.00 Build 0)  -->
<!DOCTYPE svg PUBLIC "-//W3C//DTD SVG 1.1//EN" "http://www.w3.org/Graphics/SVG/1.1/DTD/svg11.dtd">
<svg version="1.1"
	 id="svg3070" xmlns:inkscape="http://www.inkscape.org/namespaces/inkscape" xmlns:svg="http://www.w3.org/2000/svg" xmlns:rdf="http://www.w3.org/1999/02/22-rdf-syntax-ns#" xmlns:cc="http://creativecommons.org/ns#" xmlns:dc="http://purl.org/dc/elements/1.1/" xmlns:sodipodi="http://sodipodi.sourceforge.net/DTD/sodipodi-0.dtd" inkscape:version="0.48.0 r9654" sodipodi:docname="New document 4"
	 xmlns="http://www.w3.org/2000/svg" xmlns:xlink="http://www.w3.org/1999/xlink" x="0px" y="0px" width="128px" height="34px"
	 viewBox="0 0 128 34" enable-background="new 0 0 128 34" xml:space="preserve">
<sodipodi:namedview  pagecolor="#ffffff" inkscape:cx="142.93233" inkscape:cy="33.703355" inkscape:zoom="2.8" fit-margin-left="0" fit-margin-top="0" bordercolor="#666666" showgrid="false" borderopacity="1.0" id="base" inkscape:document-units="px" fit-margin-right="0" fit-margin-bottom="0" inkscape:pageshadow="2" inkscape:window-x="-8" inkscape:pageopacity="0.0" inkscape:window-width="1280" inkscape:window-maximized="1" inkscape:window-height="750" inkscape:window-y="-8" inkscape:current-layer="layer1">
	</sodipodi:namedview>
<g>
	<path id="path16" inkscape:connector-curvature="0" fill="#FFFFFF" d="M0,28.399h14.061v-4.615H5.088V6.172H0V28.399z"/>
	<path id="path18" inkscape:connector-curvature="0" fill="#FFFFFF" d="M21.179,28.399V13.09H16.09v15.309H21.179z M18.634,11
		c1.774,0,2.879-1.175,2.879-2.646c-0.034-1.502-1.104-2.645-2.845-2.645c-1.741,0-2.879,1.142-2.879,2.645
		c0,1.47,1.104,2.646,2.812,2.646H18.634L18.634,11z"/>
	<path id="path20" inkscape:connector-curvature="0" fill="#FFFFFF" d="M23.541,28.399h5.09v-8.55c0-0.458,0.032-0.915,0.166-1.241
		c0.368-0.914,1.205-1.86,2.611-1.86c1.842,0,2.578,1.404,2.578,3.461v8.19h5.088v-8.778c0-4.703-2.51-6.891-5.858-6.891
		c-2.745,0-3.95,1.535-4.62,2.58h0.035v-2.22h-5.09C23.607,14.527,23.541,28.399,23.541,28.399L23.541,28.399z"/>
	<path id="path22" inkscape:connector-curvature="0" fill="#FFFFFF" d="M46.253,6.172h-5.089v22.227h5.089v-4.964l1.271-1.602
		l3.983,6.565h6.26l-6.694-9.503l5.858-6.465h-6.127c0,0-4.184,5.785-4.553,6.471L46.253,6.172L46.253,6.172z"/>
	<path id="path24" inkscape:connector-curvature="0" fill="#FFFFFF" d="M71.376,22.014c0.067-0.394,0.169-1.148,0.169-2
		c0-3.958-2.011-7.976-7.299-7.976c-5.658,0-8.27,4.475-8.27,8.534c0,5.02,3.181,8.154,8.737,8.154c2.21,0,4.251-0.326,5.926-1.012
		l-0.671-3.36c-1.372,0.456-2.777,0.683-4.52,0.683c-2.375,0-4.451-0.975-4.619-3.056L71.376,22.014L71.376,22.014z M60.798,18.57
		c0.134-1.307,1.003-3.233,3.18-3.233c2.31,0,2.846,2.058,2.846,3.233H60.798z"/>
	<path id="path26" inkscape:connector-curvature="0" fill="#FFFFFF" d="M84.104,6.172v7.694h-0.066
		c-0.738-1.077-2.275-1.795-4.318-1.795c-3.918,0-7.365,3.135-7.333,8.49c0,4.965,3.114,8.196,6.997,8.196
		c2.108,0,4.117-0.915,5.121-2.678h0.101l0.2,2.319h4.52c-0.065-1.078-0.134-2.939-0.134-4.769V6.172H84.104z M84.104,21.313
		c0,0.392-0.033,0.784-0.102,1.109c-0.3,1.403-1.506,2.384-2.978,2.384c-2.108,0-3.482-1.697-3.482-4.375
		c0-2.516,1.172-4.54,3.517-4.54c1.572,0,2.677,1.078,2.979,2.416c0.066,0.294,0.066,0.622,0.066,0.915V21.313L84.104,21.313z"/>
	<path fill="#FFFFFF" d="M125.511,0H96.8c-1.374,0-2.489,1.088-2.489,2.429v29.046c0,1.342,1.114,2.428,2.489,2.428h28.711
		c1.374,0,2.489-1.086,2.489-2.428V2.428C128,1.087,126.886,0,125.511,0z M104.522,28.381h-5.089v-15.31h5.089V28.381z
		 M101.979,10.981h-0.033c-1.708,0-2.812-1.176-2.812-2.645c0-1.501,1.139-2.645,2.879-2.645c1.742,0,2.812,1.144,2.846,2.645
		C104.857,9.806,103.754,10.981,101.979,10.981z M122.871,28.381h-5.088v-8.19c0-2.058-0.737-3.462-2.578-3.462
		c-1.406,0-2.244,0.946-2.61,1.861c-0.134,0.327-0.168,0.785-0.168,1.242v8.549h-5.089c0,0,0.066-13.872,0-15.31h5.089v2.17
		c0.676-1.044,1.883-2.529,4.586-2.529c3.348,0,5.858,2.188,5.858,6.89V28.381z"/>
</g>
</svg>
