<?xml version="1.0" encoding="utf-8"?>
<!-- Generator: Adobe Illustrator 16.0.0, SVG Export Plug-In . SVG Version: 6.00 Build 0)  -->
<!DOCTYPE svg PUBLIC "-//W3C//DTD SVG 1.1//EN" "http://www.w3.org/Graphics/SVG/1.1/DTD/svg11.dtd">
<svg version="1.1"
	 id="svg3070" inkscape:version="0.48.0 r9654" sodipodi:docname="New document 4" xmlns:rdf="http://www.w3.org/1999/02/22-rdf-syntax-ns#" xmlns:inkscape="http://www.inkscape.org/namespaces/inkscape" xmlns:sodipodi="http://sodipodi.sourceforge.net/DTD/sodipodi-0.dtd" xmlns:svg="http://www.w3.org/2000/svg" xmlns:cc="http://creativecommons.org/ns#" xmlns:dc="http://purl.org/dc/elements/1.1/"
	 xmlns="http://www.w3.org/2000/svg" xmlns:xlink="http://www.w3.org/1999/xlink" x="0px" y="0px" width="128px" height="34px"
	 viewBox="163 0 128 34" enable-background="new 163 0 128 34" xml:space="preserve">
<sodipodi:namedview  fit-margin-right="0" inkscape:window-height="750" inkscape:window-x="-8" inkscape:window-y="-8" inkscape:window-maximized="1" fit-margin-bottom="0" inkscape:pageopacity="0.0" inkscape:window-width="1280" inkscape:pageshadow="2" inkscape:current-layer="layer1" inkscape:document-units="px" pagecolor="#ffffff" bordercolor="#666666" inkscape:cx="142.93233" inkscape:zoom="2.8" fit-margin-left="0" fit-margin-top="0" inkscape:cy="33.703355" borderopacity="1.0" showgrid="false" id="base">
	</sodipodi:namedview>
<g id="layer1" transform="translate(-200.55198,-393.96227)" inkscape:groupmode="layer" inkscape:label="Layer 1">
	<g id="g3019" transform="matrix(1.018827,0,0,-1.018827,170.5996,498.03288)">
		<path id="path14" inkscape:connector-curvature="0" fill="#006699" d="M281.954,99.764c0,1.316,1.095,2.384,2.444,2.384h28.18
			c1.35,0,2.443-1.068,2.443-2.384v-28.51c0-1.317-1.094-2.383-2.443-2.383h-28.18c-1.35,0-2.444,1.067-2.444,2.383V99.764z"/>
		<path id="path16" inkscape:connector-curvature="0" d="M189.387,74.273h13.8v4.53h-8.806v17.286h-4.994V74.273z"/>
		<path id="path18" inkscape:connector-curvature="0" d="M210.174,74.273v15.026h-4.995V74.273H210.174z M207.676,91.351
			c1.742,0,2.826,1.154,2.826,2.597c-0.033,1.474-1.084,2.596-2.792,2.596c-1.709,0-2.826-1.121-2.826-2.596
			c0-1.443,1.084-2.597,2.76-2.597H207.676L207.676,91.351z"/>
		<path id="path20" inkscape:connector-curvature="0" d="M212.493,74.273h4.995v8.392c0,0.449,0.032,0.898,0.164,1.218
			c0.361,0.897,1.183,1.826,2.563,1.826c1.807,0,2.53-1.378,2.53-3.397v-8.039h4.994v8.616c0,4.616-2.464,6.763-5.75,6.763
			c-2.694,0-3.877-1.506-4.535-2.532h0.034v2.179h-4.995C212.558,87.889,212.493,74.273,212.493,74.273L212.493,74.273z"/>
		<path id="path22" inkscape:connector-curvature="0" d="M234.785,96.089h-4.995V74.273h4.995v4.872l1.248,1.572l3.91-6.444h6.144
			l-6.571,9.327l5.75,6.346h-6.013c0,0-4.107-5.678-4.469-6.351V96.089L234.785,96.089z"/>
		<path id="path24" inkscape:connector-curvature="0" d="M259.444,80.541c0.066,0.386,0.165,1.127,0.165,1.963
			c0,3.885-1.973,7.828-7.163,7.828c-5.554,0-8.117-4.392-8.117-8.376c0-4.927,3.122-8.004,8.576-8.004
			c2.169,0,4.172,0.32,5.816,0.993l-0.658,3.298c-1.347-0.447-2.727-0.67-4.436-0.67c-2.332,0-4.369,0.957-4.534,2.999
			L259.444,80.541L259.444,80.541z M249.061,83.92c0.131,1.283,0.985,3.174,3.121,3.174c2.267,0,2.793-2.02,2.793-3.174H249.061z"/>
		<path id="path26" inkscape:connector-curvature="0" d="M271.936,96.089v-7.552h-0.065c-0.724,1.057-2.234,1.762-4.239,1.762
			c-3.845,0-7.229-3.077-7.197-8.333c0-4.873,3.057-8.045,6.868-8.045c2.069,0,4.041,0.898,5.026,2.628h0.099l0.197-2.276h4.436
			c-0.065,1.058-0.132,2.885-0.132,4.68v17.136H271.936z M271.936,81.228c0-0.384-0.033-0.77-0.099-1.089
			c-0.295-1.378-1.478-2.34-2.923-2.34c-2.07,0-3.418,1.666-3.418,4.295c0,2.468,1.15,4.455,3.451,4.455
			c1.544,0,2.628-1.058,2.924-2.371c0.065-0.289,0.065-0.61,0.065-0.898V81.228L271.936,81.228z"/>
		<path id="path28" inkscape:connector-curvature="0" fill="#FFFFFF" d="M291.978,74.291v15.027h-4.995V74.291H291.978z
			 M289.481,91.369c1.742,0,2.826,1.154,2.826,2.596c-0.033,1.474-1.084,2.596-2.793,2.596s-2.826-1.122-2.826-2.596
			c0-1.442,1.084-2.596,2.76-2.596H289.481L289.481,91.369z"/>
		<path id="path30" inkscape:connector-curvature="0" fill="#FFFFFF" d="M294.741,74.291h4.995v8.391
			c0,0.449,0.033,0.898,0.165,1.219c0.36,0.898,1.182,1.827,2.562,1.827c1.807,0,2.53-1.378,2.53-3.398v-8.039h4.994v8.617
			c0,4.615-2.464,6.763-5.75,6.763c-2.694,0-3.877-1.506-4.535-2.532h0.034v2.179h-4.995
			C294.807,87.907,294.741,74.291,294.741,74.291L294.741,74.291z"/>
	</g>
</g>
</svg>
