<?xml version="1.0" encoding="utf-8"?>
<!-- Generator: Adobe Illustrator 16.0.0, SVG Export Plug-In . SVG Version: 6.00 Build 0)  -->
<!DOCTYPE svg PUBLIC "-//W3C//DTD SVG 1.1//EN" "http://www.w3.org/Graphics/SVG/1.1/DTD/svg11.dtd">
<svg version="1.1" id="Layer_1" xmlns="http://www.w3.org/2000/svg" xmlns:xlink="http://www.w3.org/1999/xlink" x="0px" y="0px"
	 width="80px" height="80px" viewBox="-29.5 30.5 80 80" enable-background="new -29.5 30.5 80 80" xml:space="preserve">
<g>
	<g>
		<path fill="#246A27" d="M10.5,107.5c-20.402,0-37-16.598-37-37c0-20.402,16.598-37,37-37s37,16.598,37,37
			C47.5,90.902,30.902,107.5,10.5,107.5z"/>
		<path fill="#FFFFFF" d="M10.5,36.5c18.748,0,34,15.252,34,34c0,18.748-15.252,34-34,34s-34-15.252-34-34
			C-23.5,51.752-8.248,36.5,10.5,36.5 M10.5,30.5c-22.091,0-40,17.909-40,40c0,22.092,17.909,40,40,40s40-17.908,40-40
			C50.5,48.409,32.591,30.5,10.5,30.5L10.5,30.5z"/>
	</g>
	<g>
		<path fill="#FFFFFF" d="M-14.167,63.115h5.316v0.752h-4.488v3.16h4.175v0.752h-4.175v4.213h-0.828V63.115z"/>
		<path fill="#FFFFFF" d="M-6.909,63.341c0.314,0,0.564,0.25,0.564,0.564s-0.25,0.564-0.564,0.564c-0.313,0-0.564-0.251-0.564-0.564
			S-7.222,63.341-6.909,63.341z M-7.285,66.2h0.752v5.792h-0.752V66.2z"/>
		<path fill="#FFFFFF" d="M0.715,70.901c-0.59,0.878-1.479,1.241-2.508,1.241c-1.768,0-2.934-1.266-2.934-3.059
			c0-1.73,1.204-3.034,2.896-3.034c1.781,0,2.721,1.367,2.721,2.708v0.527h-4.865c0,0.626,0.439,2.181,2.194,2.181
			c0.765,0,1.567-0.401,1.944-1.028L0.715,70.901z M0.138,68.607c0-1.028-0.89-1.881-2.006-1.881c-1.642,0-2.106,1.58-2.106,1.881
			H0.138z"/>
		<path fill="#FFFFFF" d="M2.695,62.513h0.753v9.479H2.695V62.513z"/>
		<path fill="#FFFFFF" d="M10.644,70.977h-0.025c-0.464,0.803-1.454,1.166-2.32,1.166c-1.78,0-3.047-1.279-3.047-3.047
			c0-1.768,1.267-3.047,3.047-3.047c0.865,0,1.856,0.364,2.32,1.167h0.025v-4.702h0.752v9.479h-0.752V70.977z M8.299,66.726
			c-1.417,0-2.294,1.066-2.294,2.37c0,1.304,0.878,2.369,2.294,2.369c1.367,0,2.42-1.065,2.42-2.369
			C10.719,67.792,9.667,66.726,8.299,66.726z"/>
		<path fill="#FFFFFF" d="M16.16,63.115h1.091l3.799,8.877h-1.404l-0.891-2.194h-4.226l-0.877,2.194h-1.403L16.16,63.115z
			 M18.317,68.745l-1.654-4.075h-0.025l-1.68,4.075H18.317z"/>
		<path fill="#FFFFFF" d="M21.915,66.049h1.128v0.915h0.025c0.288-0.627,1.041-1.065,1.78-1.065c0.175,0,0.351,0.025,0.501,0.075
			L25.3,67.19c-0.188-0.05-0.376-0.088-0.551-0.088c-1.104,0-1.706,0.602-1.706,1.906v2.984h-1.128V66.049z"/>
		<path fill="#FFFFFF" d="M26.554,66.049h1.053v0.928h0.025c0.113-0.351,0.841-1.078,1.906-1.078c0.877,0,1.48,0.376,1.856,1.104
			c0.388-0.728,1.165-1.104,1.88-1.104c1.831,0,2.257,1.304,2.257,2.633v3.46h-1.129v-3.31c0-0.902-0.188-1.73-1.278-1.73
			s-1.517,0.739-1.517,1.793v3.247h-1.129v-3.109c0-1.128-0.163-1.931-1.254-1.931c-0.815,0-1.542,0.614-1.542,1.956v3.084h-1.128
			V66.049z"/>
	</g>
	<path fill="none" stroke="#FFFFFF" stroke-width="1.1429" stroke-linecap="square" stroke-miterlimit="10" d="M-26.046,86.783
		c5.562-3.711,12.246-5.874,19.434-5.874c16.205,0,29.842,10.992,33.861,25.929"/>
	<path fill="none" stroke="#FFFFFF" stroke-width="1.1429" stroke-linecap="square" stroke-miterlimit="10" d="M20.547,93.798
		c5.934-4.608,13.389-7.352,21.485-7.351c1.7,0,3.371,0.121,5.006,0.354"/>
</g>
</svg>
