<?xml version="1.0" encoding="utf-8"?>
<!-- Generator: Adobe Illustrator 16.0.0, SVG Export Plug-In . SVG Version: 6.00 Build 0)  -->
<!DOCTYPE svg PUBLIC "-//W3C//DTD SVG 1.1//EN" "http://www.w3.org/Graphics/SVG/1.1/DTD/svg11.dtd">
<svg version="1.1" id="Layer_1" xmlns="http://www.w3.org/2000/svg" xmlns:xlink="http://www.w3.org/1999/xlink" x="0px" y="0px"
	 width="1140px" height="228px" viewBox="0 0 1140 228" enable-background="new 0 0 1140 228" xml:space="preserve">
<g>
	<path fill="#FFFFFF" d="M190.42,43.167c-7.992,0-12.946,4.833-13.959,12.833h27.694C204.042,48,198.863,43.167,190.42,43.167z"/>
	<path fill="#FFFFFF" d="M123.03,44.761c-9.907,0-15.874,7.768-15.874,16.21s5.966,16.211,15.874,16.211
		c9.906,0,15.873-7.768,15.873-16.211S132.936,44.761,123.03,44.761z"/>
	<path fill="#FFFFFF" d="M518.078,43.167c-7.993,0-12.946,4.833-13.959,12.833h27.693C531.7,48,526.521,43.167,518.078,43.167z"/>
	<path fill="#FFFFFF" d="M210.526,179.861c-9.906,0-15.873,7.769-15.873,16.211c0,8.442,5.966,16.21,15.873,16.21
		s15.873-7.768,15.873-16.21C226.399,187.629,220.433,179.861,210.526,179.861z"/>
	<path fill="#FFFFFF" d="M421.257,207.273c0,4.953,4.899,7.064,9.289,7.064c9.231,0,13.454-4.87,13.454-12.412V199h-2.479
		C434.091,199,421.257,199.505,421.257,207.273z"/>
	<path fill="#FFFFFF" d="M450.687,44.761c-9.906,0-15.874,7.768-15.874,16.21s5.967,16.211,15.874,16.211
		c9.907,0,15.873-7.768,15.873-16.211S460.594,44.761,450.687,44.761z"/>
	<path fill="#FFFFFF" d="M257.778,44.761c-9.907,0-15.874,7.768-15.874,16.21s5.967,16.211,15.874,16.211
		c9.906,0,15.873-7.768,15.873-16.211S267.685,44.761,257.778,44.761z"/>
	<path fill="#FFFFFF" d="M118.064,178.166c-7.993,0-12.947,4.834-13.959,12.834h27.693C131.686,183,126.508,178.166,118.064,178.166
		z"/>
	<path fill="#FFFFFF" d="M996.166,72.223c0,4.953,4.945,7.04,9.335,7.04c9.229,0,13.499-4.895,13.499-12.437V64h-2.568
		C1009.001,64,996.166,64.456,996.166,72.223z"/>
	<path fill="#FFFFFF" d="M0,0v228h1140V0H0z M1007.631,42.735c-5.625,0-10.798,2.251-14.4,5.629l-7.087-7.092
		c5.969-6.08,14.315-8.668,22.873-8.668c23.077,0,22.983,16.661,22.983,24.316V88h-12v-7h-0.305c-3.828,6-10.132,8.561-17.338,8.561
		c-10.019,0-19.699-5.792-19.699-16.486c0-17.562,20.487-19.075,33.996-19.075H1020v-1.134
		C1020,46.225,1014.836,42.735,1007.631,42.735z M895,34h11V18h14v16h15v11h-15v24.077c0,5.403,1.646,8.781,7.612,8.781
		c2.363,0,5.388-0.45,7.388-1.688v11.37c-3,1.351-7.859,1.801-11.009,1.801c-14.298,0-17.991-6.417-17.991-19.138V45h-11V34z
		 M798.577,32.603c16.32,0,29.38,11.37,29.38,28.369s-13.06,28.369-29.38,28.369c-16.324,0-29.385-11.371-29.385-28.369
		S782.253,32.603,798.577,32.603z M613,34h11V18h13v16h15v11h-15v24.077c0,5.403,1.646,8.781,7.613,8.781
		c2.363,0,6.387-0.45,7.387-1.688v11.37c-3,1.351-7.356,1.801-10.511,1.801c-14.297,0-17.489-6.417-17.489-19.138V45h-11V34z
		 M324.684,32.603c15.084,0,25.316,10.582,25.316,29.382V66h-41.177c0.901,8,6.98,12.684,14.523,12.684
		c6.754,0,11.145-3.228,14.521-7.393l9.682,7.28c-6.304,7.768-14.296,10.788-22.852,10.788c-16.324,0-29.39-11.38-29.39-28.378
		S308.36,32.603,324.684,32.603z M5,8h14v80H5V8z M57,156H20v21h35v13H20v33H5v-80h52V156z M80,223H66v-54h14V223z M73.112,158.81
		c-4.954,0-8.555-3.829-8.555-8.105c0-4.279,3.602-8.105,8.555-8.105s8.78,3.49,8.78,8.105
		C81.892,155.319,78.065,158.81,73.112,158.81z M83,88H69V60.634c0-5.967-0.306-15.873-9.762-15.873
		C50.344,44.761,47,51.291,47,58.495V88H34V34h12v9h0.61c2.477-6,7.613-10.208,16.619-10.208C77.751,32.792,83,42.847,83,53.88V88z
		 M145,201h-40.895c0.901,8,6.979,12.733,14.522,12.733c6.754,0,11.145-3.201,14.522-7.367l9.682,7.292
		c-6.304,7.769-14.297,10.795-22.853,10.795c-16.323,0-29.381-11.376-29.381-28.375s12.905-28.373,29.228-28.373
		c15.086,0,25.176,10.58,25.176,29.379V201z M152,88h-13v-8h-0.098c-3.94,6-11.032,9.398-18.574,9.398
		c-16.661,0-26.681-12.413-26.681-28.398s10.695-28.293,26.118-28.293c10.131,0,15.535,4.293,18.349,8.293H138V3h14V88z M170,223
		h-13v-85h13V223z M162.952,60.972c0-16.999,13.227-28.369,29.551-28.369c15.084,0,25.497,10.582,25.497,29.382V66h-41.539
		c0.901,8,6.98,12.684,14.523,12.684c6.754,0,11.145-3.228,14.521-7.393l9.682,7.28c-6.305,7.768-14.297,10.788-22.853,10.788
		C176.011,89.359,162.952,77.97,162.952,60.972z M239,223h-12v-8h-0.601c-3.939,7-11.032,9.449-18.575,9.449
		c-16.661,0-26.68-12.388-26.68-28.373c0-15.985,10.694-28.332,26.117-28.332c10.132,0,15.536,4.256,18.351,8.256H226v-38h13V223z
		 M261.043,89.279c-10.132,0-15.536-4.279-18.351-8.279H242v33h-13V34h13v8h-0.095c3.94-6,11.032-9.427,18.575-9.427
		c16.661,0,26.68,12.368,26.68,28.353S276.465,89.279,261.043,89.279z M320,223h-14v-67h-25v-13h63v13h-24V223z M377,181.549
		c-2-0.562-4.365-1.014-6.504-1.014c-12.721,0-14.496,10.696-14.496,13.622V223h-14v-54h14v9h-0.052
		c2.927-7,9.005-10.102,16.098-10.102c1.689,0,2.954,0.142,4.954,0.593V181.549z M375,58.495V88h-14V34h13v9h0.267
		c2.477-6,7.785-10.208,16.791-10.208C405.579,32.792,411,42.847,411,53.88V88h-14V60.634c0-5.967-0.306-15.873-9.762-15.873
		C378.345,44.761,375,51.291,375,58.495z M398,223h-14v-54h14V223z M390.95,158.81c-4.954,0-8.556-3.829-8.556-8.105
		c0-4.279,3.603-8.105,8.556-8.105c4.953,0,8.781,3.49,8.781,8.105C399.731,155.319,395.903,158.81,390.95,158.81z M457,223h-12v-7
		h-0.214c-3.828,6-10.132,8.611-17.337,8.611c-10.019,0-19.7-5.817-19.7-16.511c0-17.562,20.488-19.1,33.997-19.1H445v-1.033
		c0-6.642-5.117-10.133-12.321-10.133c-5.629,0-10.777,2.253-14.379,5.629l-7.077-7.092c5.967-6.08,14.276-8.668,22.832-8.668
		c23.078,0,22.945,16.661,22.945,24.316V223z M466.56,80c-3.941,6-11.032,9.398-18.575,9.398c-16.661,0-26.681-12.413-26.681-28.398
		s10.694-28.293,26.118-28.293c10.131,0,15.535,4.293,18.349,8.293H466V3h14v85h-13v-8H466.56z M484,223h-13v-85h13V223z
		 M514.823,224.441c-8.331,0-15.535-2.139-21.052-8.33l9.006-8.444c3.49,3.829,7.093,6.643,12.834,6.643
		c3.939,0,9.006-1.914,9.006-6.193c0-11.145-29.157-2.364-29.157-22.965c0-12.045,10.807-17.449,21.727-17.449
		c7.205,0,14.86,2.251,19.25,8.218l-9.006,8.105c-2.589-3.603-5.966-5.517-10.582-5.517c-3.602,0-7.88,1.688-7.88,5.741
		c0,9.682,29.157,1.801,29.157,22.854C538.126,219.938,525.855,224.441,514.823,224.441z M545,66h-40.881
		c0.901,8,6.98,12.684,14.522,12.684c6.754,0,11.145-3.228,14.522-7.393l9.681,7.28c-6.304,7.768-14.296,10.788-22.853,10.788
		c-16.323,0-29.382-11.38-29.382-28.378s12.898-28.373,29.221-28.373c15.085,0,25.169,10.577,25.169,29.377V66z M592,223h-9v-53h9
		V223z M587.774,156.22c-3.714,0-6.416-2.701-6.416-6.416c0-3.49,2.814-6.417,6.416-6.417c3.603,0,6.417,2.926,6.417,6.417
		C594.191,153.519,591.489,156.22,587.774,156.22z M606,88h-14V60.634c0-5.967-0.307-15.873-9.762-15.873
		c-8.895,0-12.238,6.529-12.238,13.734V88h-13V34h12v9h0.562c2.478-6,7.638-10.208,16.644-10.208
		C600.727,32.792,606,42.847,606,53.88V88z M653,223h-9v-31.544c0-8.78-3.643-14.297-11.861-14.297
		c-11.369,0-16.139,8.218-16.139,20.264V223h-9v-40.1c0-4.84-0.458-8.9-0.458-12.9h8.33c0,3,0.225,6,0.225,9h0.226
		c2.364-5,8.934-9.983,17.602-9.983c13.846,0,20.076,8.817,20.076,21.539V223z M719.715,224.441
		c-12.494,0-14.715-6.754-14.715-17.675V178h-11v-8h11v-15h9v15h16v8h-16v26.177c0,6.754,0.198,12.158,7.964,12.158
		c2.591,0,5.446-0.562,7.812-1.801l0.262,7.992C726.996,223.878,722.98,224.441,719.715,224.441z M693.154,48.477
		c0-25.555,17.562-42.216,42.102-42.216c10.809,0,20.04,3.49,27.92,12.608l-11.032,8.105c-5.854-6.191-11.258-7.88-16.774-7.88
		c-16.436,0-27.354,12.609-27.354,28.482c0,16.999,10.919,29.607,27.354,29.607c6.417,0,12.608-2.927,17.899-9.681l11.709,8.331
		c-7.206,9.906-18.013,14.184-29.722,14.184C710.716,90.016,693.154,73.355,693.154,48.477z M784,223h-8v-31.544
		c0-8.78-4.143-14.297-12.361-14.297c-11.371,0-16.639,8.218-16.639,20.264V223h-9v-85h9v40h0.438c2.364-4,8.487-8.808,16.705-8.808
		c13.848,0,19.857,8.642,19.857,21.363V223z M848,199h-42.886c0.678,10,7.656,17.111,17.225,17.111
		c7.543,0,12.607-2.589,16.774-7.88l6.641,5.234c-6.191,7.994-13.622,10.949-23.415,10.949c-16.547,0-26.68-12.371-26.68-27.681
		c0-16.322,11.648-27.686,27.184-27.686c14.859,0,25.157,10.14,25.157,27.588V199z M888,88h-13V60.634
		c0-5.967-0.807-15.873-10.263-15.873c-8.892,0-12.737,6.529-12.737,13.734V88h-13V34h13v9h-0.129
		c2.476-6,7.482-10.208,16.488-10.208C882.883,32.792,888,42.847,888,53.88V88z M954,192.695c0,17.336-8.048,32.421-30.001,32.421
		c-21.95,0-29.999-15.085-29.999-32.421V143h9v48.343c0,12.834,4.629,24.992,20.5,24.992c15.875,0,20.5-12.158,20.5-24.992V143h10
		V192.695z M958,59.058V88h-14V34h14v9h-0.065c2.927-7,9.012-10.152,16.104-10.152c1.688,0,2.961,0.092,4.961,0.542v13.059
		c-2-0.562-4.363-1.013-6.504-1.013C959.775,45.437,958,56.131,958,59.058z M1019.729,223l-37.938-40H980v40h-9v-80h9v35h1.79
		l36.251-35h13.621l-39.401,36.51l41.315,43.49H1019.729z M1071.8,77.183c4.164,0,7.991-1.801,10.468-5.066l9.006,9.683
		c-5.517,5.516-14.748,7.542-19.474,7.542c-16.324,0-29.385-11.371-29.385-28.369s13.061-28.369,29.385-28.369
		c6.864,0,14.409,2.477,19.586,8.218l-9.344,9.343c-3.151-3.265-6.641-5.403-10.242-5.403c-9.907,0-15.876,7.768-15.876,16.21
		S1061.893,77.183,1071.8,77.183z M1135,45h-15v24.077c0,5.403,1.646,8.781,7.611,8.781c2.365,0,5.7-0.45,7.389-1.688v11.37
		c-2.814,1.351-7.357,1.801-10.51,1.801c-14.297,0-17.49-6.417-17.49-19.138V45h-12V34h12V18h13v16h15V45z"/>
	<path fill="#FFFFFF" d="M322.783,43.167c-7.993,0-12.946,4.833-13.96,12.833h27.694C336.405,48,331.226,43.167,322.783,43.167z"/>
	<path fill="#FFFFFF" d="M798.577,77.183c9.906,0,15.871-7.768,15.871-16.211s-5.965-16.21-15.871-16.21
		c-9.907,0-15.876,7.768-15.876,16.21S788.67,77.183,798.577,77.183z"/>
	<path fill="#FFFFFF" d="M822.339,177.14c-9.682,0-16.099,5.86-17.225,14.86h33.098C837.875,183,832.02,177.14,822.339,177.14z"/>
</g>
</svg>
